<svg width="51" height="50" viewBox="0 0 51 50" fill="none" xmlns="http://www.w3.org/2000/svg">
<rect x="0.5" width="50" height="50" rx="25" fill="white"/>
<g clip-path="url(#clip0_90_88)">
<path d="M25.0625 22.9167V23.25H25.9375V22.9167C26.2123 22.8463 26.452 22.6779 26.6114 22.4431C26.7708 22.2084 26.839 21.9235 26.8032 21.6421C26.7673 21.3606 26.6299 21.1019 26.4168 20.9146C26.2036 20.7273 25.9294 20.6243 25.6457 20.625H25.3543C25.3159 20.6252 25.2778 20.6178 25.2422 20.6033C25.2067 20.5887 25.1743 20.5673 25.1471 20.5402C25.1198 20.5131 25.0982 20.4808 25.0835 20.4454C25.0687 20.4099 25.0611 20.3718 25.0611 20.3334C25.0611 20.295 25.0687 20.2569 25.0835 20.2214C25.0982 20.186 25.1198 20.1537 25.1471 20.1267C25.1743 20.0996 25.2067 20.0781 25.2422 20.0635C25.2778 20.049 25.3159 20.0416 25.3543 20.0418H25.6457C25.723 20.0418 25.7972 20.0725 25.8519 20.1271C25.9066 20.1818 25.9374 20.2559 25.9375 20.3332V20.4793H26.8125V20.3332C26.8117 20.0753 26.7253 19.825 26.567 19.6214C26.4087 19.4178 26.1873 19.2725 25.9375 19.2082V18.875H25.0625V19.2083C24.7877 19.2787 24.548 19.4471 24.3886 19.6819C24.2292 19.9166 24.161 20.2015 24.1968 20.4829C24.2327 20.7644 24.3701 21.0231 24.5832 21.2104C24.7964 21.3977 25.0706 21.5007 25.3543 21.5H25.6457C25.6841 21.4998 25.7222 21.5072 25.7578 21.5217C25.7933 21.5363 25.8257 21.5577 25.8529 21.5848C25.8802 21.6119 25.9018 21.6442 25.9165 21.6796C25.9313 21.7151 25.9389 21.7532 25.9389 21.7916C25.9389 21.83 25.9313 21.8681 25.9165 21.9036C25.9018 21.939 25.8802 21.9713 25.8529 21.9983C25.8257 22.0254 25.7933 22.0469 25.7578 22.0615C25.7222 22.076 25.6841 22.0834 25.6457 22.0832H25.3543C25.277 22.0832 25.2028 22.0525 25.1481 21.9979C25.0934 21.9432 25.0626 21.8691 25.0625 21.7918V21.6457H24.1875V21.7918C24.1883 22.0497 24.2747 22.3 24.433 22.5036C24.5913 22.7072 24.8127 22.8525 25.0625 22.9167Z" fill="#2B2B2B"/>
<path d="M31.1749 21.6847L28.9327 21.5984C28.8527 21.5929 28.7729 21.6107 28.7027 21.6495C28.6325 21.6883 28.575 21.7465 28.5371 21.8171C28.4972 21.8861 28.477 21.9648 28.4787 22.0445C28.4803 22.1241 28.5038 22.2019 28.5465 22.2692L28.9811 22.9564L25.496 24.5224L22.6099 23.2856C22.5478 23.2587 22.4803 23.2467 22.4127 23.2506C22.3451 23.2544 22.2794 23.274 22.2207 23.3078L19.1582 25.0578L19.5923 25.8174L22.4655 24.1755L25.3281 25.4021C25.3837 25.4259 25.4437 25.4379 25.5042 25.4373C25.5647 25.4368 25.6245 25.4238 25.6797 25.3992L29.4536 23.7035L29.9299 24.4567C29.9693 24.5191 30.0238 24.5706 30.0884 24.6062C30.1531 24.6418 30.2257 24.6605 30.2995 24.6604C30.3123 24.6604 30.3251 24.66 30.338 24.6587C30.418 24.6516 30.4945 24.6227 30.5592 24.575C30.6239 24.5273 30.6741 24.4627 30.7045 24.3883L31.5633 22.2871C31.5899 22.222 31.6004 22.1514 31.5939 22.0814C31.5873 22.0113 31.5641 21.9439 31.5259 21.8848C31.4878 21.8257 31.436 21.7766 31.3749 21.7418C31.3138 21.7069 31.2452 21.6874 31.1749 21.6847ZM30.2158 23.2719L29.7304 22.5046L30.517 22.5349L30.2158 23.2719Z" fill="#2B2B2B"/>
<path d="M26.375 27.1875H24.625C24.5675 27.1875 24.5106 27.1988 24.4575 27.2207C24.4044 27.2427 24.3562 27.2749 24.3156 27.3156C24.2749 27.3562 24.2427 27.4044 24.2207 27.4575C24.1988 27.5106 24.1875 27.5675 24.1875 27.625V30.6875C24.1875 30.745 24.1988 30.8019 24.2207 30.855C24.2427 30.9081 24.2749 30.9563 24.3156 30.9969C24.3562 31.0376 24.4044 31.0698 24.4575 31.0918C24.5106 31.1137 24.5675 31.125 24.625 31.125H26.375C26.4325 31.125 26.4894 31.1137 26.5425 31.0918C26.5956 31.0698 26.6438 31.0376 26.6844 30.9969C26.7251 30.9563 26.7573 30.9081 26.7793 30.855C26.8012 30.8019 26.8125 30.745 26.8125 30.6875V27.625C26.8125 27.5675 26.8012 27.5106 26.7793 27.4575C26.7573 27.4044 26.7251 27.3562 26.6844 27.3156C26.6438 27.2749 26.5956 27.2427 26.5425 27.2207C26.4894 27.1988 26.4325 27.1875 26.375 27.1875ZM25.9375 30.25H25.0625V28.0625H25.9375V30.25Z" fill="#2B2B2B"/>
<path d="M29.4375 25.875H27.6875C27.63 25.875 27.5731 25.8863 27.52 25.9082C27.4669 25.9302 27.4187 25.9624 27.3781 26.0031C27.3374 26.0437 27.3052 26.0919 27.2832 26.145C27.2613 26.1981 27.25 26.255 27.25 26.3125V30.6875C27.25 30.745 27.2613 30.8019 27.2832 30.855C27.3052 30.9081 27.3374 30.9563 27.3781 30.9969C27.4187 31.0376 27.4669 31.0698 27.52 31.0918C27.5731 31.1137 27.63 31.125 27.6875 31.125H29.4375C29.495 31.125 29.5519 31.1137 29.605 31.0918C29.6581 31.0698 29.7063 31.0376 29.7469 30.9969C29.7876 30.9563 29.8198 30.9081 29.8418 30.855C29.8637 30.8019 29.875 30.745 29.875 30.6875V26.3125C29.875 26.255 29.8637 26.1981 29.8418 26.145C29.8198 26.0919 29.7876 26.0437 29.7469 26.0031C29.7063 25.9624 29.6581 25.9302 29.605 25.9082C29.5519 25.8863 29.495 25.875 29.4375 25.875ZM29 30.25H28.125V26.75H29V30.25Z" fill="#2B2B2B"/>
<path d="M23.3125 26.3125H21.5625C21.505 26.3125 21.4481 26.3238 21.395 26.3457C21.3419 26.3677 21.2937 26.3999 21.2531 26.4406C21.2124 26.4812 21.1802 26.5294 21.1582 26.5825C21.1363 26.6356 21.125 26.6925 21.125 26.75V30.6875C21.125 30.745 21.1363 30.8019 21.1582 30.855C21.1802 30.9081 21.2124 30.9563 21.2531 30.9969C21.2937 31.0376 21.3419 31.0698 21.395 31.0918C21.4481 31.1137 21.505 31.125 21.5625 31.125H23.3125C23.37 31.125 23.4269 31.1137 23.48 31.0918C23.5331 31.0698 23.5813 31.0376 23.6219 30.9969C23.6626 30.9563 23.6948 30.9081 23.7168 30.855C23.7387 30.8019 23.75 30.745 23.75 30.6875V26.75C23.75 26.6925 23.7387 26.6356 23.7168 26.5825C23.6948 26.5294 23.6626 26.4812 23.6219 26.4406C23.5813 26.3999 23.5331 26.3677 23.48 26.3457C23.4269 26.3238 23.37 26.3125 23.3125 26.3125ZM22.875 30.25H22V27.1875H22.875V30.25Z" fill="#2B2B2B"/>
<path d="M36.3093 22.0657C36.2481 22.0045 36.1702 21.9628 36.0853 21.9459C36.0005 21.9291 35.9125 21.9377 35.8326 21.9708C35.7526 22.0039 35.6843 22.06 35.6362 22.1319C35.5881 22.2039 35.5625 22.2885 35.5625 22.375V23.25H33.375V18.4375C33.3746 18.0895 33.2362 17.7559 32.9901 17.5098C32.7441 17.2638 32.4105 17.1254 32.0625 17.125H27.25V14.9375H28.125C28.2115 14.9375 28.2961 14.9118 28.368 14.8638C28.44 14.8157 28.496 14.7474 28.5292 14.6674C28.5623 14.5875 28.5709 14.4995 28.554 14.4147C28.5372 14.3298 28.4955 14.2519 28.4343 14.1907L25.8093 11.5657C25.7687 11.525 25.7205 11.4928 25.6674 11.4708C25.6143 11.4488 25.5574 11.4375 25.5 11.4375C25.4425 11.4375 25.3856 11.4488 25.3326 11.4708C25.2795 11.4928 25.2313 11.525 25.1906 11.5657L22.5656 14.1907C22.5045 14.2519 22.4628 14.3298 22.4459 14.4147C22.429 14.4995 22.4377 14.5875 22.4708 14.6674C22.5039 14.7474 22.56 14.8157 22.6319 14.8638C22.7039 14.9118 22.7885 14.9375 22.875 14.9375H23.75V17.125H18.9375C18.5895 17.1254 18.2559 17.2638 18.0098 17.5098C17.7638 17.7559 17.6254 18.0895 17.625 18.4375V23.25H15.4375V22.375C15.4375 22.2885 15.4118 22.2039 15.3638 22.1319C15.3157 22.06 15.2474 22.0039 15.1674 21.9708C15.0875 21.9377 14.9995 21.9291 14.9147 21.9459C14.8298 21.9628 14.7519 22.0045 14.6907 22.0657L12.0657 24.6907C12.025 24.7313 11.9928 24.7795 11.9708 24.8326C11.9488 24.8857 11.9375 24.9426 11.9375 25C11.9375 25.0575 11.9488 25.1143 11.9708 25.1674C11.9928 25.2205 12.025 25.2687 12.0657 25.3093L14.6907 27.9343C14.7519 27.9955 14.8298 28.0372 14.9147 28.0541C14.9995 28.071 15.0875 28.0623 15.1674 28.0292C15.2474 27.9961 15.3157 27.94 15.3638 27.868C15.4118 27.7961 15.4375 27.7115 15.4375 27.625V26.75H17.625V31.5625C17.6254 31.9105 17.7638 32.2441 18.0098 32.4901C18.2559 32.7362 18.5895 32.8746 18.9375 32.875H23.75V35.0625H22.875C22.7885 35.0625 22.7039 35.0881 22.6319 35.1362C22.56 35.1843 22.5039 35.2526 22.4708 35.3326C22.4377 35.4125 22.4291 35.5005 22.4459 35.5853C22.4628 35.6702 22.5045 35.7481 22.5657 35.8093L25.1907 38.4343C25.2313 38.4749 25.2795 38.5072 25.3326 38.5292C25.3857 38.5512 25.4426 38.5625 25.5 38.5625C25.5575 38.5625 25.6143 38.5512 25.6674 38.5292C25.7205 38.5072 25.7687 38.4749 25.8093 38.4343L28.4343 35.8093C28.4955 35.7481 28.5372 35.6702 28.5541 35.5853C28.571 35.5004 28.5623 35.4125 28.5292 35.3325C28.4961 35.2526 28.44 35.1843 28.368 35.1362C28.2961 35.0881 28.2115 35.0625 28.125 35.0625H27.25V32.875H32.0625C32.4105 32.8746 32.7441 32.7362 32.9901 32.4901C33.2362 32.2441 33.3746 31.9105 33.375 31.5625V26.75H35.5625V27.625C35.5625 27.7115 35.5881 27.7961 35.6362 27.868C35.6843 27.94 35.7526 27.9961 35.8325 28.0292C35.9125 28.0623 36.0005 28.0709 36.0853 28.0541C36.1702 28.0372 36.2481 27.9955 36.3093 27.9343L38.9343 25.3093C38.9749 25.2687 39.0072 25.2205 39.0292 25.1674C39.0512 25.1143 39.0625 25.0574 39.0625 25C39.0625 24.9425 39.0512 24.8856 39.0292 24.8326C39.0072 24.7795 38.9749 24.7313 38.9343 24.6906L36.3093 22.0657ZM17.625 25.875H15C14.9425 25.875 14.8856 25.8863 14.8325 25.9082C14.7794 25.9302 14.7312 25.9624 14.6906 26.0031C14.6499 26.0437 14.6177 26.0919 14.5957 26.145C14.5737 26.1981 14.5625 26.255 14.5625 26.3125V26.5688L12.9936 25L14.5625 23.4311V23.6875C14.5625 23.745 14.5737 23.8019 14.5957 23.855C14.6177 23.908 14.6499 23.9563 14.6906 23.9969C14.7312 24.0376 14.7794 24.0698 14.8325 24.0918C14.8856 24.1137 14.9425 24.125 15 24.125H17.625V25.875ZM25.5 12.4936L27.0688 14.0625H26.8125C26.755 14.0625 26.6981 14.0737 26.645 14.0957C26.5919 14.1177 26.5437 14.1499 26.5031 14.1906C26.4624 14.2312 26.4302 14.2794 26.4082 14.3325C26.3863 14.3856 26.375 14.4425 26.375 14.5V17.125H24.625V14.5C24.625 14.4425 24.6137 14.3856 24.5918 14.3325C24.5698 14.2794 24.5376 14.2312 24.4969 14.1906C24.4563 14.1499 24.408 14.1177 24.355 14.0957C24.3019 14.0737 24.245 14.0625 24.1875 14.0625H23.9311L25.5 12.4936ZM25.5 37.5063L23.9311 35.9375H24.1875C24.245 35.9375 24.3019 35.9262 24.355 35.9043C24.408 35.8823 24.4563 35.8501 24.4969 35.8094C24.5376 35.7688 24.5698 35.7205 24.5918 35.6674C24.6137 35.6144 24.625 35.5575 24.625 35.5V32.875H26.375V35.5C26.375 35.5575 26.3863 35.6144 26.4082 35.6674C26.4302 35.7205 26.4624 35.7688 26.5031 35.8094C26.5437 35.8501 26.5919 35.8823 26.645 35.9043C26.6981 35.9262 26.755 35.9375 26.8125 35.9375H27.0688L25.5 37.5063ZM32.5 31.5625C32.4999 31.6785 32.4538 31.7897 32.3718 31.8718C32.2897 31.9538 32.1785 31.9999 32.0625 32H18.9375C18.8215 31.9999 18.7102 31.9538 18.6282 31.8718C18.5462 31.7897 18.5001 31.6785 18.5 31.5625V18.4375C18.5001 18.3215 18.5462 18.2102 18.6282 18.1282C18.7102 18.0462 18.8215 18.0001 18.9375 18H32.0625C32.1785 18.0001 32.2897 18.0462 32.3718 18.1282C32.4538 18.2102 32.4999 18.3215 32.5 18.4375V31.5625ZM36.4375 26.5688V26.3125C36.4375 26.255 36.4262 26.1981 36.4043 26.145C36.3823 26.0919 36.3501 26.0437 36.3094 26.0031C36.2688 25.9624 36.2205 25.9302 36.1674 25.9082C36.1144 25.8863 36.0575 25.875 36 25.875H33.375V24.125H36C36.0575 24.125 36.1144 24.1137 36.1674 24.0918C36.2205 24.0698 36.2688 24.0376 36.3094 23.9969C36.3501 23.9563 36.3823 23.908 36.4043 23.855C36.4262 23.8019 36.4375 23.745 36.4375 23.6875V23.4311L38.0063 25L36.4375 26.5688Z" fill="#2B2B2B"/>
</g>
<defs>
<clipPath id="clip0_90_88">
<rect width="28" height="28" fill="white" transform="translate(11.5 11)"/>
</clipPath>
</defs>
</svg>
