<svg width="51" height="50" viewBox="0 0 51 50" fill="none" xmlns="http://www.w3.org/2000/svg">
<rect x="0.5" width="50" height="50" rx="25" fill="white"/>
<path d="M31.9998 24.4582C35.2905 24.4582 37.9582 21.7905 37.9582 18.4998C37.9582 15.2091 35.2905 12.5415 31.9998 12.5415C28.7091 12.5415 26.0415 15.2091 26.0415 18.4998C26.0415 21.7905 28.7091 24.4582 31.9998 24.4582Z" stroke="#2B2B2B" stroke-width="2" stroke-linecap="round" stroke-linejoin="round"/>
<path d="M32 15.7915V21.7498" stroke="#2B2B2B" stroke-width="2" stroke-linecap="round" stroke-linejoin="round"/>
<path d="M29.833 17.4164L31.9997 15.2498L34.1663 17.4164" stroke="#2B2B2B" stroke-width="2" stroke-linecap="round" stroke-linejoin="round"/>
<path d="M20.3078 23.1118C21.964 25.2405 23.716 27.289 25.5639 29.2575C25.8281 29.5372 26.1702 29.7312 26.5459 29.8145C26.9216 29.8977 27.3136 29.8663 27.6713 29.7243L29.3036 29.0764C29.5403 28.9825 29.7982 28.9557 30.0491 28.9989C30.3 29.0422 30.5341 29.1538 30.7256 29.3215L35.2017 33.241C35.3878 33.404 35.5053 33.6315 35.5304 33.8777C35.5555 34.1239 35.4863 34.3704 35.3369 34.5676L34.1518 36.0671C33.7745 36.5446 33.283 36.9194 32.7228 37.1571C32.1625 37.3949 31.5514 37.4878 30.9458 37.4274C30.4451 37.3775 29.9603 37.2239 29.5221 36.9764C26.049 35.0151 22.9609 32.4394 20.4081 29.3748L19.4108 28.1899C16.768 25.2024 14.6896 21.7599 13.2767 18.0298C13.0985 17.5593 13.0201 17.0568 13.0465 16.5542C13.0785 15.9465 13.2629 15.3565 13.5827 14.8387C13.9025 14.3209 14.3475 13.8919 14.8766 13.5912L16.5383 12.6469C16.7558 12.529 17.01 12.498 17.2495 12.5601C17.489 12.6222 17.6961 12.7727 17.8291 12.9814L21.0256 17.9994C21.1624 18.2141 21.2373 18.4624 21.2421 18.7169C21.2468 18.9715 21.1813 19.2224 21.0526 19.4421L20.165 20.9575C19.9706 21.2893 19.8802 21.6718 19.9055 22.0556C19.9307 22.4394 20.0704 22.8067 20.3066 23.1103L20.3078 23.1118Z" stroke="#2B2B2B" stroke-width="2" stroke-miterlimit="10"/>
</svg>
