<svg width="38" height="38" viewBox="0 0 38 38" fill="none" xmlns="http://www.w3.org/2000/svg">
<rect width="38" height="38" rx="19" fill="#F8D57E"/>
<path d="M14.4498 9H23.5498C27.0165 9 29.8332 11.6 29.8332 14.8V23.2C29.8332 24.7383 29.1712 26.2135 27.9928 27.3012C26.8145 28.3889 25.2163 29 23.5498 29H14.4498C10.9832 29 8.1665 26.4 8.1665 23.2V14.8C8.1665 13.2617 8.8285 11.7865 10.0068 10.6988C11.1852 9.61107 12.7834 9 14.4498 9ZM14.2332 11C13.1988 11 12.2068 11.3793 11.4755 12.0544C10.7441 12.7295 10.3332 13.6452 10.3332 14.6V23.4C10.3332 25.39 12.0773 27 14.2332 27H23.7665C24.8008 27 25.7928 26.6207 26.5242 25.9456C27.2556 25.2705 27.6665 24.3548 27.6665 23.4V14.6C27.6665 12.61 25.9223 11 23.7665 11H14.2332ZM24.6873 12.5C25.0465 12.5 25.3909 12.6317 25.6449 12.8661C25.8988 13.1005 26.0415 13.4185 26.0415 13.75C26.0415 14.0815 25.8988 14.3995 25.6449 14.6339C25.3909 14.8683 25.0465 15 24.6873 15C24.3282 15 23.9838 14.8683 23.7298 14.6339C23.4758 14.3995 23.3332 14.0815 23.3332 13.75C23.3332 13.4185 23.4758 13.1005 23.7298 12.8661C23.9838 12.6317 24.3282 12.5 24.6873 12.5ZM18.9998 14C20.4364 14 21.8142 14.5268 22.83 15.4645C23.8458 16.4021 24.4165 17.6739 24.4165 19C24.4165 20.3261 23.8458 21.5979 22.83 22.5355C21.8142 23.4732 20.4364 24 18.9998 24C17.5632 24 16.1855 23.4732 15.1697 22.5355C14.1539 21.5979 13.5832 20.3261 13.5832 19C13.5832 17.6739 14.1539 16.4021 15.1697 15.4645C16.1855 14.5268 17.5632 14 18.9998 14ZM18.9998 16C18.1379 16 17.3112 16.3161 16.7017 16.8787C16.0922 17.4413 15.7498 18.2044 15.7498 19C15.7498 19.7956 16.0922 20.5587 16.7017 21.1213C17.3112 21.6839 18.1379 22 18.9998 22C19.8618 22 20.6884 21.6839 21.2979 21.1213C21.9074 20.5587 22.2498 19.7956 22.2498 19C22.2498 18.2044 21.9074 17.4413 21.2979 16.8787C20.6884 16.3161 19.8618 16 18.9998 16Z" fill="#333333"/>
</svg>
