<svg width="51" height="50" viewBox="0 0 51 50" fill="none" xmlns="http://www.w3.org/2000/svg">
<rect x="0.5" width="50" height="50" rx="25" fill="white"/>
<path d="M37.5408 28.8035C37.2531 28.3052 36.7872 27.9487 36.2283 27.7988C35.6694 27.649 35.0875 27.725 34.5898 28.0127L28.9089 31.2923C28.8744 30.9751 28.7749 30.6645 28.6108 30.3774C28.2991 29.8321 27.796 29.4422 27.195 29.2787L20.7752 27.5309C20.7566 27.526 20.7369 27.5216 20.7178 27.5194C19.7482 27.3909 18.8628 27.6271 18.0862 28.2221L16.3745 29.533L16.304 29.2705C16.1875 28.8357 15.7391 28.5765 15.3037 28.693L13.7763 29.1026C13.341 29.2191 13.0823 29.6681 13.1988 30.1028L15.4131 38.3672C15.511 38.732 15.8419 38.9726 16.2023 38.9726C16.2723 38.9726 16.3428 38.9633 16.4133 38.9447L17.9408 38.5356C18.1513 38.4793 18.3274 38.3442 18.4362 38.155C18.5456 37.9658 18.5746 37.7454 18.5183 37.5354L18.4335 37.2199C19.343 36.539 20.1786 36.3476 21.1914 36.5795L24.8686 37.4228C25.1874 37.496 25.498 37.5321 25.7999 37.5321C26.4255 37.5321 27.0123 37.3752 27.5532 37.0629L36.7489 31.7538C37.7814 31.1588 38.1358 29.8349 37.5408 28.8035ZM16.2438 38.0845L14.0591 29.9322L15.4744 29.5532L15.6975 30.3867C15.698 30.3877 15.698 30.3888 15.6986 30.3899L17.6591 37.7055L16.2438 38.0845ZM36.3125 30.9964L27.1168 36.3055C26.5037 36.6593 25.8327 36.7457 25.0649 36.5696L21.3877 35.7263C20.2212 35.4589 19.2155 35.6416 18.1934 36.3192L16.6201 30.4474L18.6183 28.9167C19.2046 28.4677 19.8444 28.2927 20.5745 28.3835L26.9648 30.1225C27.3405 30.2248 27.6549 30.4698 27.8507 30.8116C28.0465 31.1539 28.0979 31.5488 27.9956 31.9245C27.7829 32.7054 26.9746 33.1681 26.1931 32.9553L22.7637 32.0218C22.5307 31.9584 22.2901 32.0962 22.2266 32.3292C22.1632 32.5621 22.3005 32.8027 22.534 32.8662L25.9634 33.7997C26.1685 33.8555 26.3752 33.8823 26.5781 33.8823C27.5308 33.8823 28.4112 33.296 28.7634 32.3855L35.0262 28.7695C35.3216 28.5989 35.6677 28.5541 36.0008 28.6432C36.3338 28.7324 36.6111 28.9445 36.7817 29.2399C37.1372 29.8545 36.9261 30.642 36.3125 30.9964ZM34.2803 15.2699V26.7144C34.2803 26.9561 34.4761 27.1519 34.7178 27.1519H37.287C37.5287 27.1519 37.7245 26.9561 37.7245 26.7144V15.2699C37.7245 15.0282 37.5287 14.8324 37.287 14.8324H34.7178C34.4761 14.8324 34.2803 15.0282 34.2803 15.2699ZM35.1553 15.7074H36.8495V26.2769H35.1553V15.7074ZM30.2312 17.184C29.9895 17.184 29.7937 17.3798 29.7937 17.6215V26.7138C29.7937 26.9556 29.9895 27.1513 30.2312 27.1513H32.8005C33.0422 27.1513 33.238 26.9556 33.238 26.7138V17.6215C33.238 17.3798 33.0422 17.184 32.8005 17.184H30.2312ZM32.363 26.2763H30.6687V18.059H32.363V26.2763ZM20.5461 24.5542C20.638 24.5542 20.7293 24.552 20.8206 24.5477V26.7138C20.8206 26.9556 21.0164 27.1513 21.2581 27.1513H23.8273C24.0691 27.1513 24.2648 26.9556 24.2648 26.7138V23.2609C24.6542 22.953 25.0042 22.5975 25.3072 22.2038V26.7144C25.3072 26.9561 25.503 27.1519 25.7447 27.1519H28.3139C28.5556 27.1519 28.7514 26.9561 28.7514 26.7144V19.9736C28.7514 19.7319 28.5556 19.5361 28.3139 19.5361H26.4687C26.5218 19.2151 26.5502 18.8864 26.5502 18.5506C26.5502 18.0995 26.4999 17.6598 26.4048 17.237L33.9702 12.8692L33.6098 13.9274C33.5322 14.156 33.6541 14.4048 33.8833 14.4824C33.9298 14.4983 33.9773 14.506 34.0244 14.506C34.2065 14.506 34.3765 14.3911 34.4383 14.2095L35.1739 12.0494C35.2144 11.9302 35.2018 11.7989 35.1383 11.6895C35.0755 11.5802 34.9683 11.5036 34.8447 11.479L32.6063 11.036C32.3695 10.989 32.1393 11.1432 32.0923 11.38C32.0452 11.6168 32.1994 11.847 32.4362 11.8941L33.5327 12.1112L26.1428 16.3779C25.2705 14.1385 23.0907 12.547 20.5461 12.547C17.2358 12.547 14.5425 15.2404 14.5425 18.5506C14.5425 21.8609 17.2358 24.5542 20.5461 24.5542ZM23.3898 26.2763H21.6956V24.4432C22.2972 24.3262 22.8665 24.1195 23.3898 23.8367V26.2763ZM27.8764 20.4111V26.2763H26.1822V20.62C26.2079 20.5511 26.2314 20.4811 26.2544 20.4106H27.8764V20.4111ZM20.5461 13.422C23.374 13.422 25.6747 15.7228 25.6747 18.5506C25.6747 21.3785 23.374 23.6792 20.5461 23.6792C17.7182 23.6792 15.4175 21.3785 15.4175 18.5506C15.4175 15.7228 17.7182 13.422 20.5461 13.422ZM20.5461 23.0481C23.0262 23.0481 25.0436 21.0307 25.0436 18.5506C25.0436 16.0706 23.0262 14.0531 20.5461 14.0531C18.066 14.0531 16.0486 16.0706 16.0486 18.5506C16.0486 21.0307 18.066 23.0481 20.5461 23.0481ZM20.5461 14.9281C22.5438 14.9281 24.1686 16.5535 24.1686 18.5506C24.1686 20.5478 22.5433 22.1731 20.5461 22.1731C18.5489 22.1731 16.9236 20.5478 16.9236 18.5506C16.9236 16.5535 18.5483 14.9281 20.5461 14.9281ZM19.0291 17.5799C19.0291 16.9007 19.5119 16.3325 20.1529 16.2007V15.9935C20.1529 15.7517 20.3487 15.556 20.5904 15.556C20.8321 15.556 21.0279 15.7517 21.0279 15.9935V16.2013C21.3686 16.2724 21.6765 16.4692 21.8848 16.7569C22.0265 16.9527 21.9827 17.2261 21.7869 17.3677C21.5912 17.5094 21.3177 17.4656 21.1761 17.2699C21.0749 17.1304 20.9136 17.0467 20.7435 17.0467H20.4378C20.1436 17.0467 19.9046 17.2863 19.9046 17.5799C19.9046 17.8736 20.1441 18.1131 20.4378 18.1131H20.6549C21.4315 18.1131 22.0631 18.7448 22.0631 19.5213C22.0631 20.2006 21.5802 20.7688 20.9398 20.9006V21.1078C20.9398 21.3495 20.7441 21.5453 20.5023 21.5453C20.2606 21.5453 20.0648 21.3495 20.0648 21.1078V20.9C19.7241 20.8289 19.4162 20.632 19.2079 20.3438C19.0662 20.1481 19.11 19.8746 19.3058 19.733C19.5016 19.5913 19.775 19.6351 19.9166 19.8309C20.0178 19.9703 20.1791 20.054 20.3492 20.054H20.6549C20.9491 20.054 21.1881 19.8145 21.1881 19.5208C21.1881 19.2271 20.9491 18.9876 20.6549 18.9876H20.4378C19.6612 18.9881 19.0291 18.3565 19.0291 17.5799Z" fill="#2B2B2B"/>
</svg>
