<svg width="98" height="100" viewBox="0 0 98 100" fill="none" xmlns="http://www.w3.org/2000/svg">
<path d="M88.5197 13.8363C90.5839 13.8363 92.2543 12.166 92.2543 10.1017C92.2543 8.03749 90.5839 6.36719 88.5197 6.36719C86.4555 6.36719 84.7852 8.03749 84.7852 10.1017C84.7852 12.166 86.4712 13.8363 88.5197 13.8363ZM88.5197 9.03022C89.1185 9.03022 89.607 9.5187 89.607 10.1175C89.607 10.7163 89.1185 11.2048 88.5197 11.2048C87.9052 11.2048 87.4324 10.732 87.4324 10.1175C87.4324 9.50295 87.9209 9.03022 88.5197 9.03022Z" fill="white"/>
<path d="M92.664 0.332031H15.8931C12.978 0.332031 10.5986 2.71143 10.5986 5.62658V13.7102H5.33556C2.42041 13.7102 0.0410156 16.0896 0.0410156 19.0048V85.3914C0.0410156 88.3066 2.42041 90.686 5.33556 90.686H40.5222V98.3442C40.5222 99.069 41.121 99.6678 41.8459 99.6678H66.7113C67.4362 99.6678 68.035 99.069 68.035 98.3442V90.686H82.1065C85.0216 90.686 87.401 88.3066 87.401 85.3914V77.3078H92.664C95.5792 77.3078 97.9586 74.9284 97.9586 72.0132V5.62658C97.9586 2.71143 95.5792 0.332031 92.664 0.332031ZM13.2459 5.62658C13.2459 4.16112 14.4434 2.9793 15.8931 2.9793H92.664C94.1295 2.9793 95.3113 4.17688 95.3113 5.62658V17.2399H45.0762L39.1671 11.1102C38.7101 10.6375 38.0798 10.3696 37.4337 10.3696H24.418C23.0943 10.3696 22.0071 11.4569 22.0071 12.7805V17.2399H13.2459V5.62658ZM5.33556 88.0545C3.87011 88.0545 2.68829 86.8569 2.68829 85.4072V19.0048C2.68829 17.5393 3.88586 16.3575 5.33556 16.3575H10.5986V72.029C10.5986 74.9442 12.978 77.3235 15.8931 77.3235H44.635C45.155 78.332 45.3913 79.4666 45.2968 80.6326H43.2483C41.7356 80.6326 40.5222 81.8617 40.5222 83.3587V88.0545H5.33556ZM52.9707 60.3369C53.2386 59.8642 53.7271 59.5648 54.2786 59.5648C55.098 59.5648 55.7598 60.2266 55.7598 61.046C55.7598 61.5817 55.4762 62.0702 55.0192 62.3381C54.5149 62.6375 53.9162 62.606 53.3016 62.2593C53.2228 62.212 53.144 62.149 53.1125 62.0702C52.6083 61.2666 52.8131 60.6363 52.9707 60.3369ZM52.9549 57.1696C51.9937 57.5005 51.1743 58.1466 50.6701 59.0605C49.9137 60.4157 50.0083 62.0702 50.8907 63.4884C51.1743 63.9296 51.5525 64.292 52.0095 64.5599C52.7343 64.9696 53.5222 65.1902 54.2943 65.1902C55.0192 65.1902 55.7283 65.0011 56.3586 64.6387C57.6192 63.8981 58.4071 62.5272 58.4071 61.0617C58.4071 59.2496 57.2253 57.7211 55.6022 57.1696V50.3623L67.3101 71.4932C67.2943 71.509 67.2786 71.5405 67.2313 71.5563C63.0871 72.6278 60.3768 76.5042 60.5974 80.6326H47.9756C48.2119 76.4884 45.4859 72.612 41.2628 71.4302L52.9549 50.3623V57.1696ZM65.3877 97.0205H43.1695L43.2483 83.2642H65.3089C65.3562 83.2642 65.3877 83.2957 65.3877 83.3429V97.0205ZM84.7537 85.3914C84.7537 86.8569 83.5562 88.0387 82.1065 88.0387H68.035V83.3429C68.035 81.8302 66.8059 80.6169 65.3089 80.6169H63.2604C63.1659 79.4508 63.418 78.3163 63.9222 77.3078H84.7537V85.3914ZM92.664 74.6763H66.4907C66.9162 74.4399 67.3731 74.2351 67.8774 74.109C68.7125 73.8884 69.3901 73.3054 69.7368 72.5175C70.0677 71.7454 70.0204 70.8787 69.6107 70.1381L56.0592 45.7296C55.7125 45.0835 55.035 44.6739 54.2943 44.6739C53.538 44.6896 52.8604 45.0678 52.498 45.7139L38.9307 70.1381C38.521 70.8787 38.4895 71.7611 38.8204 72.5332C39.1513 73.3211 39.8289 73.8884 40.664 74.109C41.1683 74.2351 41.6095 74.4399 42.0507 74.6763H15.8931C14.4277 74.6763 13.2459 73.4787 13.2459 72.029V19.8872H22.2277C23.5513 19.8872 24.6386 18.7999 24.6386 17.4763V13.0169H37.3234L43.2325 19.1466C43.6895 19.6193 44.3198 19.8872 44.9659 19.8872H95.3113V72.0132C95.3113 73.4787 94.1295 74.6763 92.664 74.6763Z" fill="white"/>
<path d="M79.5065 13.8363C81.5708 13.8363 83.2411 12.166 83.2411 10.1017C83.2411 8.03749 81.5708 6.36719 79.5065 6.36719C77.4423 6.36719 75.772 8.03749 75.772 10.1017C75.772 12.166 77.4423 13.8363 79.5065 13.8363ZM79.5065 9.03022C80.1053 9.03022 80.5938 9.5187 80.5938 10.1175C80.5938 10.7163 80.1053 11.2048 79.5065 11.2048C78.892 11.2048 78.4192 10.732 78.4192 10.1175C78.4192 9.50295 78.9077 9.03022 79.5065 9.03022Z" fill="white"/>
<path d="M70.4772 13.8363C72.5415 13.8363 74.2118 12.166 74.2118 10.1017C74.2118 8.03749 72.5415 6.36719 70.4772 6.36719C68.413 6.36719 66.7427 8.03749 66.7427 10.1017C66.7427 12.166 68.413 13.8363 70.4772 13.8363ZM70.4772 9.03022C71.076 9.03022 71.5645 9.5187 71.5645 10.1175C71.5645 10.7163 71.076 11.2048 70.4772 11.2048C69.8627 11.2048 69.3899 10.732 69.3899 10.1175C69.3899 9.50295 69.8784 9.03022 70.4772 9.03022Z" fill="white"/>
<path d="M79.7903 31.4216C79.0182 32.1938 78.5297 33.1707 78.3406 34.2107H59.8255V32.1307C59.8255 30.7126 58.6752 29.5623 57.257 29.5623H51.2849C49.8667 29.5623 48.7164 30.7126 48.7164 32.1307V34.2107H30.217C30.0437 33.1865 29.5552 32.2095 28.7673 31.4059C26.7661 29.4362 23.3467 29.4677 21.3927 31.4216C20.4 32.4144 19.8643 33.7223 19.8643 35.1089C19.8643 36.5113 20.4158 37.835 21.3927 38.7962C22.3855 39.8204 23.7091 40.3404 25.08 40.3404C25.9467 40.3404 26.8291 40.1356 27.6643 39.7101C28.5624 39.2532 29.303 38.4968 29.7443 37.5671C29.8546 37.3307 29.9491 37.0944 30.0279 36.858H42.8703C35.8897 40.2616 30.6267 46.6592 28.7988 54.3804H26.7503C25.3321 54.3804 24.1818 55.5307 24.1818 56.9489V62.921C24.1818 64.3392 25.3321 65.4895 26.7503 65.4895H32.7224C34.1406 65.4895 35.2909 64.3392 35.2909 62.921V56.9489C35.2909 55.5307 34.1406 54.3804 32.7224 54.3804H31.5249C33.7309 46.0604 40.3964 39.5368 48.7636 37.5198V38.0871C48.7636 39.5053 49.914 40.6556 51.3321 40.6556H57.3043C58.7224 40.6556 59.8727 39.5053 59.8727 38.0871V37.5198C68.2243 39.5368 74.8897 46.0604 77.1115 54.3804H76.0243C74.6061 54.3804 73.4558 55.5307 73.4558 56.9489V62.921C73.4558 64.3392 74.6061 65.4895 76.0243 65.4895H81.9964C83.4146 65.4895 84.5649 64.3392 84.5649 62.921V56.9489C84.5649 55.5307 83.4146 54.3804 81.9964 54.3804H79.8376C77.994 46.6592 72.7309 40.2459 65.7661 36.858H78.64C78.8921 37.5829 79.3018 38.2447 79.8534 38.7962C80.8461 39.8204 82.1697 40.3404 83.5406 40.3404C84.4073 40.3404 85.2897 40.1356 86.1249 39.7101C87.0231 39.2532 87.7637 38.4968 88.2049 37.5671C89.2291 35.4083 88.8667 33.0604 87.2437 31.4059C85.1794 29.452 81.76 29.4677 79.7903 31.4216ZM27.3333 36.4483C27.1443 36.8265 26.8291 37.1574 26.4509 37.3465C25.08 38.0398 23.8982 37.5986 23.2521 36.921C22.7637 36.4483 22.4958 35.8023 22.4958 35.1089C22.4958 34.4313 22.7637 33.7853 23.2521 33.281C23.7406 32.7926 24.3867 32.5247 25.08 32.5247C25.7576 32.5247 26.4194 32.7926 26.8921 33.2653C27.7115 34.1162 27.8691 35.298 27.3333 36.4483ZM32.6909 62.8423L26.7976 62.921L26.7188 57.0277H32.6121L32.6909 62.8423ZM81.9491 62.8423L76.0558 62.921L75.977 57.0277H81.8703L81.9491 62.8423ZM51.3794 38.1029L51.3479 36.1174C51.3794 35.9756 51.3794 35.8338 51.3637 35.6762V35.6604C51.3637 35.6132 51.3952 35.5816 51.3952 35.5344C51.3952 35.4556 51.3637 35.3926 51.3479 35.3295L51.3006 32.2253H57.194L57.2412 35.3295C57.2255 35.4083 57.194 35.4713 57.194 35.5501C57.194 35.5974 57.2097 35.6289 57.2255 35.6762V35.692C57.194 35.8968 57.2097 36.0859 57.257 36.2592L57.2885 38.0398L51.3794 38.1029ZM85.7467 36.4483C85.5576 36.8265 85.2424 37.1574 84.8643 37.3465C83.4934 38.0398 82.3115 37.5986 81.6655 36.921C81.177 36.4483 80.9091 35.8023 80.9091 35.1089C80.9091 34.4313 81.177 33.7853 81.6655 33.281C82.154 32.7926 82.8 32.5247 83.4933 32.5247C84.1709 32.5247 84.8327 32.7926 85.3055 33.2653C86.1249 34.1162 86.2824 35.298 85.7467 36.4483Z" fill="white"/>
</svg>
