<svg width="38" height="38" viewBox="0 0 38 38" fill="none" xmlns="http://www.w3.org/2000/svg">
<rect width="38" height="38" rx="19" fill="#F8D57E"/>
<g clip-path="url(#clip0_90_229)">
<path d="M19.0003 11C19.9266 11 20.8767 11.022 21.7975 11.058L22.8852 11.106L23.9262 11.163L24.9012 11.224L25.7917 11.288C26.7581 11.3563 27.6675 11.7369 28.3598 12.363C29.0521 12.9891 29.4831 13.8205 29.5769 14.711L29.6202 15.136L29.7015 16.046C29.7773 16.989 29.8337 18.017 29.8337 19C29.8337 19.983 29.7773 21.011 29.7015 21.954L29.6202 22.864C29.6062 23.01 29.5921 23.151 29.5769 23.289C29.4831 24.1796 29.052 25.0112 28.3594 25.6373C27.6668 26.2634 26.7572 26.6439 25.7907 26.712L24.9023 26.775L23.9273 26.837L22.8852 26.894L21.7975 26.942C20.8656 26.9794 19.9331 26.9987 19.0003 27C18.0676 26.9987 17.135 26.9794 16.2032 26.942L15.1155 26.894L14.0744 26.837L13.0994 26.775L12.2089 26.712C11.2425 26.6437 10.3332 26.2631 9.64084 25.637C8.9485 25.0109 8.51753 24.1795 8.42374 23.289L8.38041 22.864L8.29916 21.954C8.21632 20.9711 8.17224 19.9858 8.16699 19C8.16699 18.017 8.22333 16.989 8.29916 16.046L8.38041 15.136C8.39449 14.99 8.40858 14.849 8.42374 14.711C8.51749 13.8207 8.94831 12.9894 9.64042 12.3633C10.3325 11.7373 11.2416 11.3565 12.2078 11.288L13.0972 11.224L14.0722 11.163L15.1144 11.106L16.2021 11.058C17.1343 11.0206 18.0672 11.0013 19.0003 11ZM19.0003 13C18.1066 13 17.1868 13.022 16.292 13.056L15.2325 13.103L14.2152 13.158L13.2597 13.218L12.3844 13.281C11.9244 13.3111 11.4907 13.4906 11.1603 13.7877C10.83 14.0848 10.6242 14.4803 10.5796 14.904C10.4528 16.113 10.3337 17.618 10.3337 19C10.3337 20.382 10.4528 21.887 10.5796 23.096C10.6717 23.968 11.4213 24.646 12.3844 24.719L13.2597 24.781L14.2152 24.841L15.2325 24.897L16.292 24.944C17.1868 24.978 18.1066 25 19.0003 25C19.8941 25 20.8138 24.978 21.7087 24.944L22.7682 24.897L23.7854 24.842L24.7409 24.782L25.6162 24.719C26.0763 24.6889 26.5099 24.5094 26.8403 24.2123C27.1707 23.9152 27.3764 23.5197 27.4211 23.096C27.5478 21.887 27.667 20.382 27.667 19C27.667 17.618 27.5478 16.113 27.4211 14.904C27.3764 14.4803 27.1707 14.0848 26.8403 13.7877C26.5099 13.4906 26.0763 13.3111 25.6162 13.281L24.7409 13.219L23.7854 13.159L22.7682 13.103L21.7087 13.056C20.8064 13.0202 19.9034 13.0015 19.0003 13ZM16.8337 16.575C16.8336 16.4773 16.8594 16.381 16.9088 16.2946C16.9582 16.2081 17.0298 16.1341 17.1172 16.079C17.2047 16.0239 17.3054 15.9894 17.4106 15.9784C17.5158 15.9674 17.6223 15.9803 17.7209 16.016L17.8087 16.056L22.3587 18.48C22.4493 18.5283 22.5259 18.596 22.5821 18.6774C22.6383 18.7589 22.6723 18.8517 22.6814 18.9478C22.6904 19.044 22.6742 19.1408 22.634 19.23C22.5939 19.3192 22.531 19.3981 22.4507 19.46L22.3587 19.52L17.8087 21.945C17.717 21.994 17.6137 22.0216 17.5078 22.0253C17.4019 22.0291 17.2967 22.0089 17.2012 21.9665C17.1057 21.9241 17.0229 21.8608 16.96 21.7821C16.897 21.7034 16.8559 21.6117 16.8402 21.515L16.8337 21.425V16.575Z" fill="#333333"/>
</g>
<defs>
<clipPath id="clip0_90_229">
<rect width="26" height="24" fill="white" transform="translate(6 7)"/>
</clipPath>
</defs>
</svg>
